<svg width="240" height="230" viewBox="0 0 240 230" fill="none" xmlns="http://www.w3.org/2000/svg">
<g id="face" clip-path="url(#clip0_59_5408)">
<path id="face_2" fill-rule="evenodd" clip-rule="evenodd" d="M51.0106 -38.4311C70.0446 -57.3638 95.4465 -66 120.93 -66C146.413 -66 171.814 -57.3638 190.849 -38.4311C209.891 -19.4899 222.465 9.66192 222.465 50.5101C222.465 55.0339 222.361 59.6074 222.151 64.2113C225.266 61.4219 228.566 59.9744 231.679 60.8091C234.021 61.437 235.807 63.2505 237.085 65.7492C238.362 68.2479 239.187 71.5309 239.578 75.3311C240.361 82.9387 239.426 92.8379 236.625 103.247C233.825 113.655 229.666 122.69 225.17 128.882C222.925 131.975 220.563 134.404 218.204 135.927C215.845 137.45 213.389 138.126 211.048 137.498C210.691 137.402 210.352 137.277 210.031 137.125C202.4 162.604 191.256 185.697 176.605 202.522C161.697 219.643 143.118 230.314 120.93 230.314C98.4714 230.314 79.7113 219.382 64.7128 201.896C50.1018 184.862 39.0195 161.569 31.4737 135.931C30.7504 136.67 29.8665 137.211 28.7961 137.498C26.4543 138.126 23.9988 137.45 21.6397 135.927C19.2804 134.404 16.919 131.975 14.6734 128.882C10.1781 122.69 6.01914 113.655 3.21867 103.247C0.418209 92.8379 -0.5169 82.9387 0.265696 75.3311C0.65662 71.5309 1.48159 68.2479 2.75903 65.7492C4.03649 63.2505 5.82285 61.437 8.16482 60.8091C10.4192 60.2046 12.7805 60.8089 15.057 62.2134C16.6528 63.1979 18.25 64.5997 19.8124 66.3424C19.5334 61.0186 19.3937 55.7312 19.3937 50.5101C19.3937 9.66192 31.968 -19.4899 51.0106 -38.4311ZM52.421 -37.0131C33.8262 -18.5173 21.3937 10.0859 21.3937 50.5101C21.3937 56.6905 21.5908 62.966 21.9845 69.2861L22.1909 72.6003L20.1886 69.9513C18.1008 67.1891 15.9976 65.1437 14.0069 63.9155C12.0182 62.6885 10.2297 62.3261 8.68279 62.7408C7.07699 63.1714 5.66527 64.4583 4.5398 66.6597C3.4143 68.8611 2.63147 71.8781 2.2552 75.5358C1.50341 82.8439 2.39632 92.4922 5.14999 102.727C7.90365 112.962 11.9733 121.758 16.2919 127.707C18.4534 130.685 20.6452 132.904 22.7245 134.247C24.8039 135.589 26.6721 135.997 28.2781 135.566C29.4328 135.257 30.3062 134.495 30.9747 133.215L32.1339 130.994L32.8227 133.403C40.3279 159.651 51.4943 183.413 66.2309 200.594C80.955 217.76 99.1998 228.314 120.93 228.314C142.399 228.314 160.466 218.011 175.096 201.209C189.74 184.392 200.901 161.102 208.49 135.288L208.921 133.82L210.092 134.804C210.514 135.158 210.998 135.414 211.566 135.566C213.172 135.997 215.04 135.589 217.119 134.247C219.199 132.904 221.39 130.685 223.552 127.707C227.87 121.758 231.94 112.962 234.694 102.727C237.447 92.4922 238.34 82.8439 237.589 75.5358C237.212 71.8781 236.429 68.8611 235.304 66.6597C234.178 64.4583 232.767 63.1714 231.161 62.7408C228.58 62.0487 225.304 63.5542 221.761 67.4125L219.876 69.465L220.026 66.6823C220.319 61.2424 220.465 55.8409 220.465 50.5101C220.465 10.0859 208.033 -18.5173 189.438 -37.0131C170.835 -55.5174 145.969 -64 120.93 -64C95.8904 -64 71.0243 -55.5174 52.421 -37.0131ZM134.073 138.939L129.188 83.2004L131.18 83.0264L136.065 138.765C136.306 141.516 134.272 143.941 131.521 144.181L118.632 145.307L118.457 143.315L131.346 142.189C132.997 142.045 134.217 140.59 134.073 138.939ZM105.159 175.158H141.841V173.158H105.159V175.158ZM181.626 73.5176H144.944V71.5176H181.626V73.5176ZM63.9754 73.5176H100.657V71.5176H63.9754V73.5176Z" fill="white"/>
</g>
<defs>
<clipPath id="clip0_59_5408">
<rect width="240" height="230" fill="white"/>
</clipPath>
</defs>
</svg>
