<svg width="198" height="231" viewBox="0 0 198 231" fill="none" xmlns="http://www.w3.org/2000/svg">
<path d="M166.193 127.492C159.397 135.67 149.941 148.385 146.432 147.201C140.152 145.083 143.2 103.547 144.308 89.4562C145.416 75.3654 153.08 23.8831 138.675 23.6068C124.269 23.3306 123.438 52.0648 122.699 60.5377C121.96 69.0107 119.56 108.428 111.803 108.797C104.046 109.165 104.415 58.0511 104.415 47.1837C104.415 36.3162 104.415 -0.430472 87.7932 1.04308C71.1714 2.51663 78.5589 47.1837 78.5589 52.0648C78.5589 56.946 85.6693 110.546 78.5589 111.928C71.4484 113.309 61.6599 57.4064 59.9054 47.1837C58.1509 36.9609 52.1485 16.147 40.4209 19.3704C28.6932 22.5938 35.1573 51.4201 38.297 60.5377C41.4367 69.6553 52.4256 116.533 46.7926 120.401C41.1596 124.269 27.031 86.6012 24.5377 78.865C22.0445 71.1289 14.2876 59.5247 6.90007 64.0374C-0.487432 68.5502 -0.487432 79.8781 4.40679 89.4562C9.30101 99.0343 18.9048 127.492 32.664 178.882C46.4232 230.272 72.5565 229.628 101.922 229.996C131.287 230.365 148.832 203.933 156.959 189.842C165.085 175.751 172.842 163.042 186.97 144.714C201.099 126.387 197.221 120.401 193.712 116.533C190.202 112.665 174.689 117.269 166.193 127.492Z" stroke="white" stroke-width="2"/>
</svg>
