<svg width="240" height="231" viewBox="0 0 240 231" fill="none" xmlns="http://www.w3.org/2000/svg">
<path d="M187.193 127.492C180.397 135.67 170.941 148.385 167.432 147.201C161.152 145.083 164.2 103.547 165.308 89.4562C166.416 75.3654 174.08 23.8831 159.675 23.6068C145.269 23.3306 144.438 52.0648 143.699 60.5377C142.96 69.0107 140.56 108.428 132.803 108.797C125.046 109.165 125.415 58.0511 125.415 47.1837C125.415 36.3162 125.415 -0.430472 108.793 1.04308C92.1714 2.51663 99.5589 47.1837 99.5589 52.0648C99.5589 56.946 106.669 110.546 99.5589 111.928C92.4484 113.309 82.6599 57.4064 80.9054 47.1837C79.1509 36.9609 73.1485 16.147 61.4209 19.3704C49.6932 22.5938 56.1573 51.4201 59.297 60.5377C62.4367 69.6553 73.4256 116.533 67.7926 120.401C62.1596 124.269 48.031 86.6012 45.5377 78.865C43.0445 71.1289 35.2876 59.5247 27.9001 64.0374C20.5126 68.5502 20.5126 79.8781 25.4068 89.4562C30.301 99.0343 39.9048 127.492 53.664 178.882C67.4232 230.272 93.5565 229.628 122.922 229.996C152.287 230.365 169.832 203.933 177.959 189.842C186.085 175.751 193.842 163.042 207.97 144.714C222.099 126.387 218.221 120.401 214.712 116.533C211.202 112.665 195.689 117.269 187.193 127.492Z" stroke="white" stroke-width="2"/>
</svg>
