<svg width="360" height="230" viewBox="0 0 360 230" fill="none" xmlns="http://www.w3.org/2000/svg">
<path d="M137.995 123.352C133.14 129.193 126.386 138.275 123.88 137.429C119.394 135.916 121.571 106.248 122.363 96.183C123.154 86.1181 128.629 49.3451 118.339 49.1477C108.049 48.9504 107.456 69.4749 106.928 75.527C106.4 81.579 104.685 109.734 99.1447 109.998C93.6041 110.261 93.8679 73.7508 93.8679 65.9883C93.8679 58.2259 93.8679 31.9782 81.9952 33.0308C70.1224 34.0833 75.3992 65.9883 75.3992 69.4749C75.3992 72.9614 80.4781 111.247 75.3992 112.234C70.3203 113.221 63.3285 73.2903 62.0753 65.9883C60.8221 58.6864 56.5347 43.8193 48.1578 46.1217C39.7809 48.4241 44.3981 69.0144 46.6407 75.527C48.8833 82.0395 56.7326 115.523 52.709 118.286C48.6854 121.049 38.5936 94.1437 36.8127 88.6179C35.0318 83.0921 29.4911 74.8033 24.2143 78.0267C18.9375 81.2501 18.9375 89.3415 22.4334 96.183C25.9293 103.024 32.7891 123.352 42.6171 160.059C52.4452 196.766 71.1118 196.306 92.087 196.569C113.062 196.832 125.595 177.952 131.399 167.887C137.204 157.822 142.744 148.744 152.836 135.653C162.928 122.562 160.158 118.286 157.651 115.523C155.145 112.76 144.063 116.05 137.995 123.352Z" stroke="white" stroke-width="2"/>
<path d="M222.005 123.352C226.86 129.193 233.614 138.275 236.12 137.429C240.606 135.916 238.429 106.248 237.637 96.183C236.846 86.1181 231.371 49.3451 241.661 49.1477C251.951 48.9504 252.544 69.4749 253.072 75.527C253.6 81.579 255.315 109.734 260.855 109.998C266.396 110.261 266.132 73.7508 266.132 65.9883C266.132 58.2259 266.132 31.9782 278.005 33.0308C289.878 34.0833 284.601 65.9883 284.601 69.4749C284.601 72.9614 279.522 111.247 284.601 112.234C289.68 113.221 296.671 73.2903 297.925 65.9883C299.178 58.6864 303.465 43.8193 311.842 46.1217C320.219 48.4241 315.602 69.0144 313.359 75.527C311.117 82.0395 303.267 115.523 307.291 118.286C311.315 121.049 321.406 94.1437 323.187 88.6179C324.968 83.0921 330.509 74.8033 335.786 78.0267C341.062 81.2501 341.062 89.3415 337.567 96.183C334.071 103.024 327.211 123.352 317.383 160.059C307.555 196.766 288.888 196.306 267.913 196.569C246.938 196.832 234.405 177.952 228.601 167.887C222.796 157.822 217.256 148.744 207.164 135.653C197.072 122.562 199.842 118.286 202.349 115.523C204.855 112.76 215.937 116.05 222.005 123.352Z" stroke="white" stroke-width="2"/>
</svg>
