<svg width="44" height="24" viewBox="0 0 44 24" fill="none" xmlns="http://www.w3.org/2000/svg">
<path fill-rule="evenodd" clip-rule="evenodd" d="M0 12C0 12 0.422488 12.407 1.16995 13.0711C4.48121 16.0129 14.17 24 21.7582 24C29.3464 24 39.0353 16.0129 42.3465 13.0711C43.094 12.407 43.5165 12 43.5165 12C43.5165 12 43.094 11.593 42.3465 10.9289C39.0353 7.98712 29.3464 0 21.7582 0C14.17 0 4.48121 7.98711 1.16995 10.9289C0.422489 11.593 0 12 0 12ZM41.1692 12C40.939 12.2035 40.6801 12.4292 40.3952 12.6733C39.1092 13.775 37.3024 15.2414 35.2166 16.7045C33.1264 18.1706 30.7846 19.6131 28.4272 20.6843C26.054 21.7627 23.7668 22.4176 21.7582 22.4176C19.7497 22.4176 17.4625 21.7627 15.0892 20.6843C12.7318 19.6131 10.3901 18.1706 8.29992 16.7045C6.21406 15.2414 4.4073 13.775 3.12127 12.6733C2.8364 12.4292 2.57752 12.2035 2.34728 12C2.57752 11.7966 2.8364 11.5708 3.12127 11.3267C4.4073 10.225 6.21406 8.75859 8.29992 7.29549C10.3901 5.82938 12.7318 4.38685 15.0892 3.31566C17.4625 2.23725 19.7497 1.58242 21.7582 1.58242C23.7668 1.58242 26.054 2.23725 28.4272 3.31566C30.7846 4.38685 33.1264 5.82938 35.2166 7.29549C37.3024 8.75859 39.1092 10.225 40.3952 11.3267C40.6801 11.5708 40.939 11.7966 41.1692 12ZM22.945 6.85714C22.945 7.43977 22.4727 7.91209 21.8901 7.91209C21.3074 7.91209 20.8351 7.43977 20.8351 6.85714C20.8351 6.27451 21.3074 5.8022 21.8901 5.8022C22.4727 5.8022 22.945 6.27451 22.945 6.85714ZM24.5274 6.85714C24.5274 8.31372 23.3467 9.49451 21.8901 9.49451C20.4335 9.49451 19.2527 8.31372 19.2527 6.85714C19.2527 5.40057 20.4335 4.21978 21.8901 4.21978C23.3467 4.21978 24.5274 5.40057 24.5274 6.85714ZM20.1119 11.8681H15.033V10.2857H28.8791V11.8681H23.9321L28.9962 16.9321L27.8772 18.0511L22.022 12.1959L16.1668 18.0511L15.0479 16.9321L20.1119 11.8681Z" fill="#CE93D8"/>
</svg>
