<svg width="240" height="230" viewBox="0 0 240 230" fill="none" xmlns="http://www.w3.org/2000/svg">
<path d="M94.2822 121.537C90.8146 125.709 85.9901 132.196 84.1998 131.592C80.996 130.512 82.5508 109.32 83.1161 102.131C83.6815 94.9415 87.592 68.6751 80.2422 68.5341C72.8924 68.3931 72.4683 83.0535 72.0914 87.3764C71.7145 91.6993 70.4895 111.81 66.5319 111.998C62.5744 112.186 62.7628 86.1077 62.7628 80.5631C62.7628 75.0185 62.7628 56.2702 54.2823 57.022C45.8017 57.7738 49.5708 80.5631 49.5708 83.0535C49.5708 85.5439 53.1986 112.891 49.5708 113.596C45.9431 114.301 40.949 85.7788 40.0538 80.5631C39.1586 75.3474 36.0962 64.7281 30.1127 66.3726C24.1292 68.0172 27.4272 82.7246 29.0291 87.3764C30.6309 92.0282 36.2375 115.945 33.3636 117.919C30.4896 119.892 23.2811 100.674 22.0091 96.7271C20.737 92.78 16.7794 86.8595 13.0102 89.1619C9.24111 91.4644 9.24111 97.2439 11.7382 102.131C14.2352 107.017 19.1351 121.537 26.1551 147.756C33.1751 173.976 46.5084 173.647 61.4907 173.835C76.473 174.023 85.4247 160.537 89.5708 153.348C93.7168 146.159 97.6744 139.674 104.883 130.324C112.091 120.973 110.113 117.919 108.322 115.945C106.532 113.972 98.6167 116.321 94.2822 121.537Z" stroke="white" stroke-width="2"/>
<path d="M145.718 121.537C149.185 125.709 154.01 132.196 155.8 131.592C159.004 130.512 157.449 109.32 156.884 102.131C156.318 94.9415 152.408 68.6751 159.758 68.5341C167.108 68.3931 167.532 83.0535 167.909 87.3764C168.285 91.6993 169.51 111.81 173.468 111.998C177.426 112.186 177.237 86.1077 177.237 80.5631C177.237 75.0185 177.237 56.2702 185.718 57.022C194.198 57.7738 190.429 80.5631 190.429 83.0535C190.429 85.5439 186.801 112.891 190.429 113.596C194.057 114.301 199.051 85.7788 199.946 80.5631C200.841 75.3474 203.904 64.7281 209.887 66.3726C215.871 68.0172 212.573 82.7246 210.971 87.3764C209.369 92.0282 203.762 115.945 206.636 117.919C209.51 119.892 216.719 100.674 217.991 96.7271C219.263 92.78 223.221 86.8595 226.99 89.1619C230.759 91.4644 230.759 97.2439 228.262 102.131C225.765 107.017 220.865 121.537 213.845 147.756C206.825 173.976 193.492 173.647 178.509 173.835C163.527 174.023 154.575 160.537 150.429 153.348C146.283 146.159 142.326 139.674 135.117 130.324C127.909 120.973 129.887 117.919 131.678 115.945C133.468 113.972 141.383 116.321 145.718 121.537Z" stroke="white" stroke-width="2"/>
</svg>
