<svg width="240" height="232" viewBox="0 0 240 232" fill="none" xmlns="http://www.w3.org/2000/svg">
<path d="M125.88 28.2731L125.085 27.6666L124.629 28.2645L125.077 28.8686L125.88 28.2731ZM113.816 28.7735L114.672 29.2898L115.043 28.6741L114.578 28.1261L113.816 28.7735ZM113.261 29.9542L114.204 30.2846L114.204 30.2845L113.261 29.9542ZM113.197 30.1362L112.253 29.8058L112.253 29.8058L113.197 30.1362ZM109.411 34.0916L109.783 35.0201L109.783 35.0201L109.411 34.0916ZM103.303 36.5347L102.932 35.6063L102.932 35.6063L103.303 36.5347ZM91.4267 49.8759L92.3919 50.1374L92.3919 50.1374L91.4267 49.8759ZM85.4131 72.0801L84.4478 71.8187L84.4478 71.8187L85.4131 72.0801ZM82.8685 77.7652L82.0305 77.2196L82.0305 77.2196L82.8685 77.7652ZM65.7593 104.04L64.9214 103.494L64.9214 103.494L65.7593 104.04ZM65.5602 108.821L66.4407 108.347L66.4407 108.347L65.5602 108.821ZM73.6298 109.135L72.789 108.594L72.789 108.594L73.6298 109.135ZM89.6758 84.2069L90.5166 84.7482L90.5442 84.7053L90.5673 84.6598L89.6758 84.2069ZM98.1119 67.5984L97.2203 67.1455L98.1119 67.5984ZM101.888 68.338L100.892 68.4211L100.892 68.4211L101.888 68.338ZM102.912 80.6298L101.916 80.7128L101.916 80.7128L102.912 80.6298ZM102.709 85.5787L103.696 85.7431L103.696 85.7431L102.709 85.5787ZM98.0018 113.824L98.9882 113.988L98.9882 113.988L98.0018 113.824ZM97.7429 117.839L96.7436 117.875L96.7436 117.875L97.7429 117.839ZM101.248 214.22L100.248 214.256L100.248 214.256L101.248 214.22ZM100.951 217.218L101.924 217.45L101.924 217.45L100.951 217.218ZM99.1795 224.658L98.2067 224.426L98.2067 224.426L99.1795 224.658ZM109.321 226.271L110.318 226.353L110.318 226.353L109.321 226.271ZM118.253 117.375L119.249 117.457L119.249 117.457L118.253 117.375ZM120.015 115.808L120.301 114.849L120.015 114.764L119.73 114.849L120.015 115.808ZM121.778 117.375L120.782 117.457L120.782 117.457L121.778 117.375ZM130.71 226.271L129.713 226.353L129.713 226.353L130.71 226.271ZM140.851 224.658L141.824 224.426L141.824 224.426L140.851 224.658ZM139.08 217.218L138.107 217.45L138.107 217.45L139.08 217.218ZM138.783 214.22L139.782 214.256L139.782 214.256L138.783 214.22ZM142.288 117.839L141.289 117.802L141.289 117.802L142.288 117.839ZM142.029 113.824L143.015 113.66L143.015 113.66L142.029 113.824ZM137.321 85.5787L138.308 85.4143L138.308 85.4143L137.321 85.5787ZM137.118 80.6298L136.122 80.5467L136.122 80.5467L137.118 80.6298ZM138.143 68.338L137.146 68.255L137.146 68.255L138.143 68.338ZM141.919 67.5984L142.811 67.1455L142.811 67.1455L141.919 67.5984ZM150.355 84.2069L149.463 84.6598L149.487 84.7053L149.514 84.7482L150.355 84.2069ZM166.401 109.135L165.56 109.677L165.56 109.677L166.401 109.135ZM174.471 108.821L173.59 108.347L173.59 108.347L174.471 108.821ZM174.271 104.04L175.109 103.494L175.109 103.494L174.271 104.04ZM157.162 77.7652L158 77.2196L158 77.2196L157.162 77.7652ZM154.618 72.0801L155.583 71.8187L155.583 71.8187L154.618 72.0801ZM148.604 49.8759L147.639 50.1374L147.639 50.1374L148.604 49.8759ZM136.727 36.5347L136.356 37.4632L136.356 37.4632L136.727 36.5347ZM130.62 34.0916L130.248 35.0201L130.248 35.0201L130.62 34.0916ZM126.834 30.1362L127.778 29.8058L127.778 29.8058L126.834 30.1362ZM126.77 29.9542L125.826 30.2845L125.826 30.2846L126.77 29.9542ZM129.15 13.0682C129.15 18.3484 127.737 24.1896 125.085 27.6666L126.675 28.8796C129.692 24.9245 131.15 18.5896 131.15 13.0682H129.15ZM119.647 2C122.064 2 124.422 2.81749 126.173 4.55892C127.915 6.29189 129.15 9.03466 129.15 13.0682H131.15C131.15 8.61064 129.773 5.3193 127.583 3.14094C125.402 0.971046 122.508 0 119.647 0V2ZM110.143 13.0682C110.143 9.03466 111.378 6.29189 113.12 4.55892C114.871 2.81749 117.229 2 119.647 2V0C116.785 0 113.892 0.971046 111.71 3.14094C109.52 5.3193 108.143 8.61064 108.143 13.0682H110.143ZM114.578 28.1261C111.693 24.7298 110.143 18.6022 110.143 13.0682H108.143C108.143 18.8358 109.735 25.5142 113.053 29.4208L114.578 28.1261ZM114.204 30.2845C114.328 29.9324 114.485 29.5999 114.672 29.2898L112.959 28.2571C112.702 28.6839 112.486 29.141 112.317 29.6238L114.204 30.2845ZM114.141 30.4665L114.204 30.2846L112.317 29.6238L112.253 29.8058L114.141 30.4665ZM109.783 35.0201C111.825 34.2032 113.414 32.5427 114.141 30.4665L112.253 29.8058C111.717 31.3366 110.546 32.5608 109.04 33.1632L109.783 35.0201ZM103.675 37.4632L109.783 35.0201L109.04 33.1632L102.932 35.6063L103.675 37.4632ZM92.3919 50.1374C93.9526 44.3746 98.1314 39.6806 103.675 37.4632L102.932 35.6063C96.8051 38.057 92.1865 43.2451 90.4614 49.6145L92.3919 50.1374ZM86.3783 72.3415L92.3919 50.1374L90.4614 49.6145L84.4478 71.8187L86.3783 72.3415ZM83.7065 78.3109C84.9034 76.4728 85.8049 74.4586 86.3783 72.3415L84.4478 71.8187C83.929 73.7342 83.1134 75.5565 82.0305 77.2196L83.7065 78.3109ZM66.5973 104.586L83.7065 78.3109L82.0305 77.2196L64.9214 103.494L66.5973 104.586ZM66.4407 108.347C65.8011 107.159 65.8611 105.716 66.5973 104.586L64.9214 103.494C63.7859 105.238 63.6932 107.463 64.6798 109.295L66.4407 108.347ZM72.789 108.594C71.2689 110.956 67.7722 110.819 66.4407 108.347L64.6798 109.295C66.7334 113.109 72.1263 113.319 74.4707 109.677L72.789 108.594ZM88.8349 83.6657L72.789 108.594L74.4707 109.677L90.5166 84.7482L88.8349 83.6657ZM97.2203 67.1455L88.7842 83.7541L90.5673 84.6598L99.0034 68.0513L97.2203 67.1455ZM102.885 68.255C102.634 65.2427 98.5891 64.4506 97.2203 67.1455L99.0034 68.0513C99.4597 67.1529 100.808 67.417 100.892 68.4211L102.885 68.255ZM103.909 80.5467L102.885 68.255L100.892 68.4211L101.916 80.7128L103.909 80.5467ZM103.696 85.7431C103.982 84.0265 104.053 82.281 103.909 80.5467L101.916 80.7128C102.047 82.2819 101.982 83.8612 101.723 85.4143L103.696 85.7431ZM98.9882 113.988L103.696 85.7431L101.723 85.4143L97.0154 113.66L98.9882 113.988ZM98.7422 117.802C98.6958 116.526 98.7782 115.248 98.9882 113.988L97.0154 113.66C96.7833 115.052 96.6923 116.464 96.7436 117.875L98.7422 117.802ZM102.247 214.184L98.7422 117.802L96.7436 117.875L100.248 214.256L102.247 214.184ZM101.924 217.45C102.178 216.381 102.287 215.282 102.247 214.184L100.248 214.256C100.282 215.174 100.191 216.093 99.978 216.987L101.924 217.45ZM100.152 224.889L101.924 217.45L99.978 216.987L98.2067 224.426L100.152 224.889ZM104.189 230C101.509 230 99.5315 227.497 100.152 224.889L98.2067 224.426C97.2866 228.29 100.217 232 104.189 232V230ZM108.324 226.19C108.148 228.343 106.349 230 104.189 230V232C107.39 232 110.056 229.544 110.318 226.353L108.324 226.19ZM117.256 117.294L108.324 226.19L110.318 226.353L119.249 117.457L117.256 117.294ZM119.943 114.818C118.539 114.818 117.371 115.895 117.256 117.294L119.249 117.457C119.279 117.096 119.58 116.818 119.943 116.818V114.818ZM119.73 114.849C119.799 114.829 119.87 114.818 119.943 114.818V116.818C120.065 116.818 120.186 116.8 120.301 116.766L119.73 114.849ZM120.088 114.818C120.16 114.818 120.232 114.829 120.301 114.849L119.73 116.766C119.845 116.8 119.965 116.818 120.088 116.818V114.818ZM122.775 117.294C122.66 115.895 121.491 114.818 120.088 114.818V116.818C120.45 116.818 120.752 117.096 120.782 117.457L122.775 117.294ZM131.706 226.19L122.775 117.294L120.782 117.457L129.713 226.353L131.706 226.19ZM135.842 230C133.682 230 131.883 228.343 131.706 226.19L129.713 226.353C129.975 229.544 132.641 232 135.842 232V230ZM139.879 224.889C140.499 227.497 138.522 230 135.842 230V232C139.814 232 142.744 228.29 141.824 224.426L139.879 224.889ZM138.107 217.45L139.879 224.889L141.824 224.426L140.053 216.987L138.107 217.45ZM137.784 214.184C137.744 215.282 137.853 216.381 138.107 217.45L140.053 216.987C139.84 216.093 139.749 215.174 139.782 214.256L137.784 214.184ZM141.289 117.802L137.784 214.184L139.782 214.256L143.287 117.875L141.289 117.802ZM141.043 113.988C141.253 115.248 141.335 116.526 141.289 117.802L143.287 117.875C143.339 116.464 143.247 115.052 143.015 113.66L141.043 113.988ZM136.335 85.7431L141.043 113.988L143.015 113.66L138.308 85.4143L136.335 85.7431ZM136.122 80.5467C135.977 82.281 136.049 84.0265 136.335 85.7431L138.308 85.4143C138.049 83.8612 137.984 82.2819 138.115 80.7128L136.122 80.5467ZM137.146 68.255L136.122 80.5467L138.115 80.7128L139.139 68.4211L137.146 68.255ZM142.811 67.1455C141.442 64.4506 137.397 65.2427 137.146 68.255L139.139 68.4211C139.223 67.417 140.571 67.1529 141.027 68.0513L142.811 67.1455ZM151.247 83.7541L142.811 67.1455L141.027 68.0513L149.463 84.6598L151.247 83.7541ZM167.242 108.594L151.196 83.6657L149.514 84.7482L165.56 109.677L167.242 108.594ZM173.59 108.347C172.259 110.819 168.762 110.956 167.242 108.594L165.56 109.677C167.905 113.319 173.297 113.109 175.351 109.295L173.59 108.347ZM173.433 104.586C174.17 105.716 174.23 107.159 173.59 108.347L175.351 109.295C176.338 107.463 176.245 105.238 175.109 103.494L173.433 104.586ZM156.324 78.3109L173.433 104.586L175.109 103.494L158 77.2196L156.324 78.3109ZM153.653 72.3415C154.226 74.4586 155.127 76.4728 156.324 78.3109L158 77.2196C156.917 75.5565 156.102 73.7342 155.583 71.8187L153.653 72.3415ZM147.639 50.1374L153.653 72.3415L155.583 71.8187L149.569 49.6145L147.639 50.1374ZM136.356 37.4632C141.899 39.6806 146.078 44.3746 147.639 50.1374L149.569 49.6145C147.844 43.2451 143.226 38.057 137.099 35.6063L136.356 37.4632ZM130.248 35.0201L136.356 37.4632L137.099 35.6063L130.991 33.1632L130.248 35.0201ZM125.89 30.4665C126.617 32.5427 128.206 34.2032 130.248 35.0201L130.991 33.1632C129.485 32.5608 128.314 31.3366 127.778 29.8058L125.89 30.4665ZM125.826 30.2846L125.89 30.4665L127.778 29.8058L127.714 29.6238L125.826 30.2846ZM125.077 28.8686C125.391 29.2923 125.645 29.7675 125.826 30.2845L127.714 29.6238C127.466 28.9144 127.116 28.2608 126.683 27.6776L125.077 28.8686Z" fill="white"/>
</svg>
